<?xml version="1.0" encoding="UTF-8"?>
<svg id="Layer_1" xmlns="http://www.w3.org/2000/svg" version="1.1" viewBox="0 0 13.06 35.61">
  <!-- Generator: Adobe Illustrator 29.8.2, SVG Export Plug-In . SVG Version: 2.1.1 Build 3)  -->
  <defs>
    <style>
      .st0 {
        fill: #231f20;
      }
    </style>
  </defs>
  <path class="st0" d="M23.63-19.11c.01.59-.65.1-1.23.17q-.58.06-1.17.13c-.59.06-.59.04-1.18.1s-.59.06-1.17.13-.59.05-1.18.11-.59.04-1.18.1-.59.05-1.17.11-.59.08-1.17.14-.58.13-1.17.19-.86-.4-1.14.12.21.5.5.99.28.5.57.99.38.44.67.93.26.51.56,1,.33.47.63.96.98.62.58,1.03-.55-.29-1.1-.53-.54-.24-1.09-.48-.57-.19-1.11-.43-.53-.27-1.07-.51-.56-.2-1.11-.44-.51-.77-1.04-.49c-.52.27-.1.53-.19,1.11-.09.58-.12.57-.21,1.15s-.16.57-.25,1.14-.02.59-.12,1.16-.16.57-.26,1.14c-.09.58-.01.59-.11,1.17s-.13.57-.22,1.15c-.09.58-.14.57-.24,1.15s-.08.58-.17,1.16.02.6-.07,1.18-.23.56-.32,1.14.46,1.13-.12,1.14-.05-.55-.13-1.13c-.08-.58-.1-.58-.18-1.15s-.13-.57-.21-1.14-.09-.58-.17-1.15-.03-.58-.11-1.16-.05-.58-.13-1.16-.19-.56-.28-1.14.04-.6-.04-1.17-.19-.56-.27-1.14c-.08-.58-.06-.58-.14-1.16s0-.59-.08-1.17.35-.95-.21-1.14c-.59-.2-.5.35-.98.75s-.51.36-.99.75-.42.47-.9.86-.51.36-.99.75c-.48.39-.44.44-.92.83s-.48.39-.97.78-.56.3-1.04.69-.43.45-.92.84-.47.41-.95.8-.49.38-.98.78c-.49.39-.51,1.17-.96.74s.27-.53.61-1.06c.35-.53.38-.5.73-1.03s.35-.53.69-1.05c.35-.53.35-.52.7-1.05s.37-.51.72-1.04.34-.53.69-1.06.37-.52.71-1.04.34-.53.68-1.06.38-.5.73-1.03.31-.55.66-1.08.86-.45.73-1.07c-.11-.54-.55-.2-1.06-.43-.51-.22-.48-.29-.98-.51s-.5-.23-1.01-.45-.53-.16-1.04-.39-.5-.24-1.01-.47-1.19.1-1.04-.44c.16-.61.62-.16,1.23-.31.61-.15.6-.19,1.21-.34.61-.15.62-.11,1.23-.27s.61-.14,1.22-.3,1.04.3,1.26-.29c.21-.54-.42-.47-.8-.91s-.41-.42-.79-.86-.36-.46-.74-.91c-.38-.44-.38-.45-.76-.89-.38-.44-.44-.39-.82-.84s-.34-.48-.73-.93c-.38-.44-.37-.46-.75-.9s-.36-.46-.75-.91-.41-.42-.79-.86-.4-.43-.79-.87-.35-.48-.73-.93-.39-.44-.78-.89-1.22-.47-.81-.89.51.35,1.01.68.53.27,1.03.6.43.43.93.76.52.29,1.02.62.52.29,1.02.62.5.33,1,.66.52.3,1.02.63.46.38.96.71.48.36.98.69.49.34.99.67.54.27,1.04.6.51.32,1.01.65.44.94.99.71c.55-.23.13-.6.23-1.19s.02-.6.12-1.19.23-.56.34-1.15.06-.59.17-1.18.06-.59.17-1.18.14-.58.24-1.17c.11-.59.06-.59.17-1.18s.14-.58.24-1.17.05-.6.15-1.19-.33-1.22.27-1.24.15.64.26,1.23.05.6.15,1.18.11.59.22,1.17.12.58.22,1.17.05.6.16,1.18.19.57.29,1.16.13.58.23,1.17.11.59.22,1.17.06.6.16,1.19-.31.86.22,1.14c.57.3.57-.22,1.18-.44s.62-.19,1.23-.41.61-.21,1.22-.43.59-.26,1.2-.48.79-.86,1.25-.4c.43.43-.35.51-.66,1.03s-.34.5-.65,1.02c-.31.52-.25.55-.56,1.07s-.32.51-.63,1.03-.8.47-.57,1.03.53.2,1.12.35.6.11,1.18.25.57.21,1.16.36.62.02,1.2.16c.59.15.56.25,1.15.4s.6.08,1.19.23.56.24,1.15.39.59.15,1.18.29c.59.15.59.21,1.19.2.72,0,1.23-.28,1.24.33Z"/>
  <path class="st0" d="M9.64,11.75c-.13-.46.06-.52.06-1s.05-.48.05-.97.11-.48.11-.97-.24-.48-.24-.97-.02-.48-.02-.97.23-.49.23-.97.03-.49.03-.97-.17-.49-.17-.97-.14-.52-.06-1c.21-.17.65-.39.65-.69,0-.6-.07-.6-.07-1.2,0-.26-.29-.4-.47-.57s-.31-.31-.57-.31c-.53,0-.53,0-1.05,0s-.53-.05-1.06-.05-.53-.09-1.06-.09-.53.02-1.06.02-.53.2-1.06.2c-.26,0-.56-.1-.73.07s-.13.47-.13.73c0,.6-.04.6-.04,1.2,0,.3,0,.55.22.73.09.48-.05.46-.05.95s.16.48.16.97.06.48.06.97-.06.48-.06.97-.14.48-.14.97.21.49.21.97-.23.49-.23.97.18.49.18.97.16.52.03.99c-.3.07-.68.04-.95.17s-.44.44-.68.63-.55.3-.74.53-.16.6-.29.87-.52.45-.59.75.16.62.16.93c0,.49.09.49.09.99s-.04.49-.04.99-.08.49-.08.99-.09.49-.09.98,0,.49,0,.99.06.5.06.99-.1.49-.1.99.15.49.15.99-.12.5-.12.99.16.5.16.99-.19.5-.19.99.14.49.14.99-.03.5-.03.99.1.5.1.99-.14.5-.14,1,.12.5.12,1c0,.36.11.66.2.99s.15.66.32.96.38.56.62.81.52.43.82.6.59.31.93.4.65.36,1.01.36c.47,0,.47-.11.94-.11s.47-.03.94-.03.47-.12.94-.12.47.2.95.2.47-.2.95-.2c.36,0,.71.09,1.04,0s.74-.1,1.04-.27.52-.51.76-.76.5-.51.68-.81.36-.63.45-.97-.12-.7-.12-1.06c0-.49.17-.49.17-.99s.01-.49.01-.99.14-.49.14-.99-.33-.49-.33-.98.07-.49.07-.99.19-.5.19-.99-.22-.49-.22-.99.12-.49.12-.99-.15-.5-.15-.99,0-.5,0-.99.26-.5.26-.99-.08-.49-.08-.99.03-.5.03-.99-.19-.5-.19-.99.11-.5.11-1-.05-.5-.05-1c0-.31.03-.6-.04-.89s-.31-.51-.44-.77-.24-.52-.43-.75-.25-.59-.49-.77-.46-.45-.73-.58-.74-.04-1.04-.1Z"/>
  <path class="st0" d="M23.65,88.35c-.27-.06-.39-.06-.57-.05-.05,0-.12,0-.23,0-.22,0-.47.03-.79.09-.27.05-.54.15-.79.27-.28.14-.51.31-.71.52l-.08.08c-.14.14-.33.34-.46.62-.1.22-.13.44-.15.64l-.02.17c-.04.25-.06.5-.06.77,0,.14-.02.29-.05.43l-.03.18c-.02.17-.05.33-.09.49-.05.18-.12.36-.19.54-.08.18-.17.35-.26.52-.06.12-.14.22-.22.33l-.13.19c-.11.16-.21.31-.33.45-.05.07-.11.14-.16.2-.07.09-.14.19-.21.27-.14.15-.29.29-.43.42-.08.08-.17.14-.26.2-.08.06-.16.11-.22.17h0c-.12-.12-.28-.22-.41-.36-.15-.16-.29-.33-.47-.48-.16-.14-.31-.32-.5-.45-.17-.13-.36-.26-.56-.38-.18-.12-.4-.2-.6-.32-.19-.11-.39-.21-.6-.31-.2-.1-.4-.2-.61-.29-.2-.09-.42-.15-.63-.23-.21-.08-.38-.27-.59-.34-.22-.07-.46-.05-.67-.11-.22-.06-.44-.11-.65-.16-.22-.05-.43-.14-.65-.18-.21-.04-.42-.09-.62-.12-.05-.07-.1-.14-.14-.22-.09-.2-.18-.4-.28-.6-.1-.2-.22-.38-.33-.57-.12-.19-.14-.44-.27-.62-.13-.18-.25-.37-.39-.54-.14-.17-.4-.25-.54-.41-.15-.16-.2-.42-.36-.57-.16-.15-.42-.2-.59-.34-.17-.14-.25-.41-.42-.54-.18-.13-.44-.14-.63-.26-.19-.12-.37-.23-.57-.34-.2-.1-.38-.24-.58-.33-.2-.09-.4-.21-.61-.29-.21-.07-.43-.12-.65-.17-.21-.05-.45-.01-.67-.05-.2-.03-.39-.16-.59-.19.83-.88,1.52-1.02,1.52-2.66,0-1.08-1.07,0-2.14,0s-1.79-1.02-2.17-.01c-.52,1.38.55,1.39,1.11,2.75-.12.01-.24.02-.36.04-.22.04-.43.13-.64.18-.22.05-.42.13-.63.2-.21.07-.43.1-.64.19-.2.09-.4.18-.6.28-.2.1-.42.16-.61.27-.19.12-.34.29-.52.42-.18.13-.3.33-.47.47-.17.14-.42.2-.58.35-.16.15-.22.41-.37.57-.15.16-.35.28-.49.45-.14.17-.32.32-.45.5-.13.18-.24.38-.36.57-.12.19-.21.39-.32.59-.1.19-.24.38-.33.58-.09.2-.18.41-.27.61-.08.2-.13.43-.2.64-.07.21-.16.42-.22.63-.06.21,0,.46-.04.68-.05.22-.07.43-.1.65-.03.22-.06.44-.08.66-.02.22-.15.43-.16.65-.01.22-.02.44-.02.67s.11-.81.12-.59c.01.23-.09.46-.06.68.03.23.11.44.15.65.04.22.12.43.18.64.06.22.04.46.12.66.08.21.33.35.42.54.1.2.14.43.26.61.12.19.23.38.37.56.14.18.28.35.43.51.16.16.31.33.48.47.17.14.33.31.51.44.18.12.42.17.61.28.19.1.4.19.61.28.2.09.44.09.65.16.21.07.41.14.63.2.21.06.43.1.65.14.22.05.42.14.64.18.22.03.44.02.67.05.22.02.43.12.66.13.22.02.44.08.67.08.22,0,.44-.07.67-.07s.44-.04.67-.05c.22,0,.44-.03.66-.05.22-.02.44-.02.66-.05.22-.02.46.1.68.07.22-.03.42-.21.63-.25.22-.05.43-.09.65-.15.22-.06.45-.07.65-.14.21-.07.4-.19.6-.28.21-.09.4-.18.6-.29.2-.11.4-.2.58-.32.19-.12.4-.21.57-.35.17-.14.32-.31.48-.47.16-.16.25-.37.39-.54.14-.17.27-.34.39-.53.12-.19.31-.33.41-.54.1-.2.18-.41.26-.62.08-.2.15-.42.21-.64.06-.21,1.49.02,1.7.08.22.06.45.07.66.12.22.05.44.09.66.13.1.02.2.03.3.05,0,.15,0,.21,0,.45,0,.31,0,.31,0,.62s-.01,1.45-.01,1.76,0,.31,0,.62-.01.31-.01.62.02.31.02.62c0,.09.08.15.18.15.29,0,.29.03.58.03s.29-.03.58-.03c.09,0,.19-.05.19-.14,0-.31-.02-.31-.02-.63s.01-.31.01-.63-.03-.31-.03-.63,0-1.45,0-1.76.02-.31.02-.62c0-.14,0-.21,0-.28.06,0,.13,0,.2,0,.08,0,.15-.02.23-.02,0,.08.01.16.01.32,0,.31,0,.31,0,.62s-.03,1.45-.03,1.76,0,.31,0,.62,0,.31,0,.62.04.31.04.62c0,.09.06.17.15.17.29,0,.29,0,.58,0s.29.02.58.02c.09,0,.16-.1.16-.19,0-.31-.01-.31-.01-.63s.02-.31.02-.63.02-.31.02-.63-.03-1.45-.03-1.76-.01-.31-.01-.62,0-.31,0-.62c0-.02,0-.04,0-.06.08-.05.16-.1.23-.15.18-.15.35-.33.43-.54.08-.2.1-.45.07-.68,0-.03-.02-.06-.02-.09.03-.02.05-.04.09-.08l.15-.13s.09-.07.15-.11c.13-.09.27-.19.4-.32.15-.15.32-.3.49-.48.11-.11.2-.24.3-.37l.13-.17c.14-.17.26-.35.41-.57l.1-.14c.1-.15.21-.3.3-.46.11-.21.23-.42.32-.65.09-.22.18-.46.24-.69.07-.23.1-.45.14-.73l.02-.11c.03-.19.06-.4.06-.63,0-.19.01-.37.04-.54.01-.07.02-.14.03-.21.01-.1.03-.23.05-.27.03-.06.1-.14.18-.22l.1-.11c.09-.09.19-.17.33-.24.14-.07.28-.12.43-.15.22-.04.38-.06.51-.06.15,0,.24,0,.32,0,.08,0,.08,0,.19.02.37.08.73-.15.81-.51.08-.37-.15-.73-.51-.81Z"/>
  <path class="st0" d="M17.15,59.05c-.06-.24-.16-.46-.24-.68s-.26-.41-.37-.62-.08-.51-.21-.71-.34-.35-.49-.54-.37-.31-.55-.47-.26-.45-.45-.59-.41-.28-.62-.39-.46-.17-.69-.26-.5.03-.74-.02c-.25-.06-.47-.24-.73-.27s-.51-.02-.77,0-.51.07-.75.15-.45.22-.67.37c-.21.13-.45.24-.64.44-.17.17-.21.45-.36.69-.13.2-.31.41-.41.66-.2-.12-.42-.22-.63-.31s-.43-.1-.66-.15-.42-.28-.66-.28c-.3,0-.61.34-.89.4.02-.18.15-.54.22-.86.05-.23-.03-.52.05-.78.07-.23.26-.44.38-.68.1-.23.2-.47.34-.69s.28-.44.45-.63.37-.36.58-.51c.2-.15.45-.22.7-.34.22-.11.43-.28.69-.35.23-.06.47-.13.7-.15s.48.02.71.03.47.08.7.12c.19.04.46-.03.71-.07.28-.05.52-.07.46-.36-.03-.15-.24-.29-.51-.5-.17-.13-.32-.35-.56-.49-.2-.11-.48-.1-.72-.2-.21-.09-.38-.35-.62-.43-.22-.08-.47-.14-.71-.21-.23-.06-.46-.17-.71-.22s-.49-.08-.74-.12-.5.08-.75.07-.49.05-.74.05-.49-.06-.74-.04-.47.12-.72.16-.49.02-.73.08-.46.15-.7.23-.51.04-.74.14-.41.28-.63.4-.41.27-.61.41-.37.31-.56.47-.46.22-.64.4c-.17.17-.33.36-.48.55s-.17.46-.3.67-.35.35-.45.57-.07.48-.15.71-.22.43-.27.66-.23.46-.25.7.06.49.07.73-.06.5-.01.74.17.46.24.7c.08.24.2.47.31.69s.34.38.49.58.3.37.49.54.28.47.51.59c.21.11.5.1.75.16.23.06.48.1.75.11.24,0,.5.11.77.08,0,0-.06-.12-.06-.11,0,.24.11.47.15.69s.11.45.2.67.1.48.22.68.35.35.51.52c-.17.07-.46.08-.76.18-.22.07-.45.2-.72.25-.24.05-.48.2-.75.22-.25.02-.52.04-.78.03s-.47-.25-.73-.32-.46-.14-.7-.25c-.22-.1-.43-.22-.64-.38-.2-.14-.39-.29-.58-.48-.17-.17-.44-.24-.58-.43s-.22-.43-.32-.64-.08-.47-.15-.7c-.06-.18-.22-.46-.37-.65-.18-.22-.39-.25-.61-.06-.12.1-.34.27-.39.61-.03.21.06.47.06.75,0,.23-.12.48-.1.75.02.23.25.45.29.71.04.23.1.47.16.71.06.23.15.46.22.7s.06.49.16.72.25.42.36.64.05.52.18.74.28.41.42.61.37.33.53.53.25.43.42.61.41.27.6.44.34.34.54.49.4.27.62.4.44.2.66.32.44.2.67.29.42.28.66.35c.23.07.46.14.7.18s.48.02.72.03.48.05.72.04.48-.02.72-.06.47-.13.69-.2.41-.25.63-.35.53-.03.73-.16.41-.28.6-.43.28-.41.45-.58c.17-.19.45-.31.59-.52s.22-.48.33-.71.16-.49.22-.74.09-.5.07-.77c-.01-.24,0-.52-.08-.78-.07-.23-.17-.48-.3-.72-.11-.21-.21-.37-.37-.59.21-.12.25-.32.43-.47s.31-.33.46-.52.36-.31.47-.52.2-.45.27-.67c.15.11.34.34.58.55.17.16.34.34.53.55.16.18.34.36.49.58.14.21.35.38.47.62s.18.48.25.73.08.5.11.76c.02.25.16.51.14.78-.02.24-.19.49-.26.74-.06.23-.1.47-.2.68s-.2.44-.33.64-.3.37-.46.55c-.13.15-.42.31-.51.54-.1.26-.04.53.24.62.15.05.36-.06.68-.18.2-.08.48-.06.72-.2.2-.11.37-.3.59-.46.19-.14.4-.27.6-.44.18-.15.32-.37.5-.55.17-.17.43-.26.6-.44s.37-.34.52-.53.12-.52.26-.73.33-.37.45-.58.18-.46.29-.68.33-.39.42-.62.06-.5.13-.73.3-.43.35-.67.07-.49.1-.74.11-.49.11-.74-.1-.49-.12-.74-.09-.48-.13-.73-.01-.49-.07-.74Z"/>
  <g>
    <path class="st0" d="M6.28-52.69c-.37.33-.49-.05-.99-.05s-.5-.02-.99-.02-.5.15-.99.15-.5-.03-.99-.03-.5-.03-.99-.03-.5-.06-.99-.06-.5.06-.99.06-.49.02-.99.02-.5,0-.99,0-.5-.05-1-.05-.5.02-.99.02-.5-.05-.99-.05-.5.12-1,.12-.5-.06-.99-.06-.5-.1-1-.1-.5.12-.99.12-.5-.07-1-.07-.5.03-1,.03-.5-.04-1-.04-.57.33-.95,0c-.33-.29-.14-.38-.14-.82s.16-.44.16-.88-.1-.44-.1-.88.06-.44.06-.88-.3-.53.03-.83c.37-.33.45-.08.94-.08s.5.04.99.04.5,0,.99,0,.5-.1.99-.1.5.06.99.06.5.03.99.03.5-.1.99-.1.49-.01.99-.01.5.18.99.18.5-.19,1-.19.5.04.99.04.5.05.99.05.5-.09,1-.09.5.06.99.06.5.11,1,.11.5-.07.99-.07.5-.01,1-.01.5.06,1,.06.5-.14,1-.14.59-.19.96.14c.33.29.04.39.04.83s-.09.44-.09.88.14.44.14.88-.08.44.02.87c.1.46.26.6-.06.89Z"/>
    <path class="st0" d="M26.1-54.39c-.48,0-.48-.13-.97-.13s-.48-.05-.97-.05-.48.1-.97.1-.48-.08-.97-.08-.48.1-.97.1-.48-.01-.97-.01-.48.03-.97.03-.48.04-.97.04-.48-.22-.97-.22-.48.07-.97.07-.48.14-.96.14-.48-.16-.96-.16-.48.02-.97.02-.48.04-.97.04-.48-.09-.97-.09-.48.09-.97.09-.49-.11-.97-.11-.48.04-.97.04-.49.15-.97.15-.48-.02-.97-.02-.49-.06-.97-.06-.49-.09-.97-.09-.49,0-.98,0-.49-.03-.98-.03c-.31,0-.67-.14-.67-.44,0-.5.05-.5.05-1.01s-.02-.5-.02-1.01-.02-.51-.02-1.01.14-.51.14-1.01c0-.31.22-.58.53-.58.48,0,.48.05.97.05s.48-.13.97-.13.48.08.97.08.48,0,.97,0,.48.14.97.14.48-.15.97-.15.48-.06.97-.06.48.13.97.13.48-.05.97-.05.48-.05.97-.05.48.01.96.01.48.1.96.1.48-.11.97-.11.48.12.97.12.48-.03.97-.03.48-.02.97-.02.49-.1.97-.1.48.2.97.2.49,0,.97,0,.48-.04.97-.04.49-.1.97-.1.49-.01.97-.01.49.13.98.13.49-.03.98-.03c.31,0,.61.23.61.53,0,.5-.14.5-.14,1.01s.12.5.12,1.01-.04.51-.04,1.01.09.51.09,1.01c0,.31-.33.67-.64.67Z"/>
    <path class="st0" d="M5.35-56.04c0,.32-.02.59.01.9s.15.62.22.93.12.63.22.93.2.61.33.9.29.57.45.84.35.53.54.79.28.6.5.83.54.37.78.58.44.47.7.66.51.4.78.56.62.19.91.32.54.38.84.48.63.14.94.21.63.09.95.13.63,0,.96,0,.64.02.95-.02.63-.09.94-.15.6-.21.9-.31.6-.19.89-.32.62-.18.9-.34.51-.39.77-.58.53-.36.76-.58.42-.48.63-.72.45-.45.64-.71.33-.54.49-.82.35-.53.48-.83.16-.62.26-.92.22-.59.29-.91.07-.63.11-.95.11-.6.11-.93c-.46-.15-.47,0-.95,0s-.48-.07-.96-.07-.48.12-.96.12-.48-.06-.96-.06-.48-.05-.96-.05-.48-.02-.96-.02-.48.13-.96.13-.48-.02-.96-.02-.48-.02-.96-.02-.48-.12-.96-.12-.48.04-.96.04-.48.09-.96.09-.48.03-.96.03-.48-.08-.96-.08-.48.06-.96.06-.48-.1-.97-.1-.48.09-.97.09-.49.02-.97-.01-.49-.12-.95.03Z"/>
  </g>
  <path class="st0" d="M25.33,295.03c-.16-.15-.24.03-.46.03s-.22.1-.45.1-.22-.21-.44-.21-.22.08-.44.07-.22.08-.45.07-.22-.21-.44-.21-.22-.01-.44-.02-.22.05-.45.05-.23.22-.45.21-.22-.17-.44-.18-.22,0-.45,0-.22.05-.44-.01c-.05-.13-.14-.21-.22-.32s-.1-.27-.19-.37-.3-.07-.4-.15-.18-.2-.3-.26-.26-.12-.39-.16c-.12-.18-.15-.18-.23-.38s.15-.29.07-.49-.34-.1-.42-.3.12-.28.04-.48-.24-.14-.31-.34.04-.25-.04-.45-.11-.19-.19-.39-.11-.19-.19-.39-.07-.2-.15-.41,0-.23-.08-.43-.18-.16-.26-.36-.11-.19-.19-.39-.03-.22-.11-.42-.04-.22-.12-.42-.18-.16-.26-.37.04-.25-.04-.45-.33-.24-.24-.44.29,0,.49-.09.14-.22.35-.3.28.11.48.04.19-.1.4-.18.41.03.49-.17-.08-.29-.16-.49-.23-.14-.31-.34-.16-.17-.24-.37,0-.23-.08-.43-.16-.17-.24-.37,0-.23-.08-.43-.11-.19-.19-.39.07-.26,0-.46-.16-.17-.24-.37-.1-.19-.18-.39-.12-.18-.2-.38.06-.25-.02-.46-.09-.19-.17-.39-.23-.14-.31-.34.06-.25-.02-.45-.22-.14-.3-.34.01-.24-.06-.44.08-.26,0-.46-.17-.17-.24-.37.03-.24-.05-.44-.15-.17-.23-.37-.12-.19-.19-.39-.21-.15-.29-.35-.08-.2-.16-.4.2-.47,0-.55-.25.19-.45.27-.2.07-.41.15-.25-.05-.45.03-.17.16-.37.24-.17.17-.37.25-.2.08-.4.16-.25-.04-.45.03-.16.18-.36.26-.25-.05-.45.03-.17.15-.37.23-.15.2-.35.28-.19.1-.39.18-.29-.14-.49-.06-.2.07-.4.15-.2.07-.4.15-.2.09-.4.17-.13.26-.33.34-.22.03-.42.11-.25-.05-.45.02-.19.1-.39.18-.14.23-.34.31-.27-.09-.47-.01-.15.2-.35.28-.26-.07-.46,0-.12.29-.32.36-.2.09-.4.17-.19.11-.39.18-.24-.03-.44.05-.17.16-.37.23-.28-.12-.48-.04-.19.12-.39.2-.15.2-.35.28-.24-.02-.44.06-.16.19-.36.27-.22.04-.42.12-.2.09-.4.17-.18.13-.38.2-.2.09-.4.16-.25-.05-.45.03-.21.06-.41.14-.18.13-.38.21-.22.04-.42.12-.21.05-.41.13-.19.11-.39.19-.16.18-.36.26-.29-.15-.49-.07-.4.03-.48.23c-.09.22.21.26.3.48s.11.17.03.38-.1.07-.3.15-.19.11-.4.19-.21.07-.42.14-.23.03-.44.1-.21.08-.41.16-.4,0-.5.19.27.22.35.42.12.18.19.38-.04.24.04.44.1.19.17.39-.02.23.06.43.06.2.14.4.11.19.18.38.18.16.25.36.04.21.12.41.03.21.11.41.22.14.3.34-.06.25.02.45.14.17.21.37.11.19.19.38.05.21.12.41-.08.26,0,.45.17.16.25.36.15.17.23.37-.08.26,0,.46.14.17.22.37-.06.33.13.41c.21.09.19-.16.4-.24s.26.05.48-.03.23-.03.45-.11.12-.33.33-.41.24,0,.45-.09.29-.33.5-.24,0,.35.09.56.03.21.24.31c.19.09.17.1.37.03s.19-.1.38-.18.22-.01.42-.09.15-.19.35-.27.18-.13.37-.21.27.11.47.04.1-.33.3-.4.27.1.46.02.2-.07.4-.15.13-.24.33-.32.29.16.49.08.16-.17.36-.24.22-.02.42-.1.19-.11.38-.18.2-.07.4-.15.2-.08.39-.16.22-.03.41-.11.16-.16.36-.24.16-.18.36-.26.19-.09.39-.17.2-.08.4-.15.27.11.47.03.2-.06.4-.14.2-.08.4-.16.15-.21.35-.28.25.05.44-.03.19-.09.39-.17.15-.21.34-.29.2-.06.4-.14.24.04.44-.04.18-.13.38-.21.16-.17.36-.24.26.07.45,0,.18-.13.38-.21.16-.17.36-.25.25.07.45-.01.22-.44.41-.36-.03.33.05.52.13.17.21.37-.02.23.06.43.22.14.29.33.16.16.24.36-.1.26-.02.46.18.15.26.35,0,.22.08.42.02.21.1.41.06.2.14.39.23.13.31.33-.12.27-.04.46.28.12.36.31,0,.22.08.42-.08.25,0,.45.33.1.41.29.02.23.05.44c-.1.11-.22.22-.3.34s-.23.22-.28.35.12.33.09.48-.1.26-.1.41-.04.3-.01.45.18.25.23.39.13.25.21.37.13.26.24.36.25.14.38.22.12.4.26.46.36-.16.51-.13.27.11.42.11c.13,0,.24-.07.37-.09s.26.02.38-.03.23-.1.34-.16.23-.11.33-.19.21-.2.29-.3c.22-.04.23.21.44.21s.22-.03.44-.02.22-.2.44-.2.22.22.43.23.22-.18.44-.17.22-.09.44-.08.22.25.43.25.22-.19.44-.19.22.04.44.05.22.01.44.02.22.13.44.13.22-.11.44-.11.31.21.48.06c.15-.13.03-.24.04-.44s-.09-.2-.09-.4-.08-.2-.08-.4.24-.2.24-.4-.16-.21-.11-.4c.05-.22.15-.28,0-.42Z"/>
  <path class="st0" d="M20.47,346.41c0-.36-.16-.36-.16-.72s-.05-.36-.05-.71-.09-.36-.09-.71.13-.36.13-.71-.11-.36-.11-.71.2-.36.2-.71.32-.58.07-.83c-.25-.25-.47.13-.82.13s-.35-.17-.7-.17-.35.19-.7.19-.35.02-.7.02-.35-.17-.7-.17-.35.05-.7.05-.35.03-.7.03-.35.11-.7.11-.35-.19-.7-.19-.35.04-.7.04-.35-.09-.7-.09-.35.1-.7.1-.35-.09-.7-.09-.35.1-.7.1-.35.19-.7.19-.35.01-.7.01-.35-.06-.7-.06-.35.02-.7.02-.35-.24-.7-.24-.35.18-.7.18-.35-.14-.7-.14-.35.1-.7.1-.35-.14-.7-.14-.35.12-.7.12-.35-.05-.7-.05-.35-.06-.7-.06-.35.04-.7.04-.35.12-.7.12-.35-.09-.7-.09-.35,0-.7,0-.35.04-.7.04-.35.04-.7.04-.35-.14-.7-.14-.35.2-.7.2-.35-.25-.7-.25-.35.33-.7.33-.35-.28-.7-.28-.35.08-.7.08-.35,0-.7,0-.35-.07-.7-.07-.35.18-.7.18-.35-.1-.7-.1-.35.06-.7.06-.44-.26-.68-.01c-.25.26.01.34.01.7s-.2.36-.2.72.26.36.26.72.07.36.07.72-.01.36-.01.72-.24.36-.24.71.09.36.09.71.09.36.09.71-.24.36-.24.71.12.36.12.71.05.36.05.72-.07.36-.07.71,0,.36,0,.71.16.36.16.71.05.36.05.71-.12.36-.12.71-.29.46-.05.72c.25.25.35-.16.7-.16s.35,0,.7,0,.35.17.7.17c.31,0,.35.12.6.14-.18.2.08.22.08.55,0,.35-.02.35-.02.69s-.23.35-.23.69,0,.35,0,.69.02.35.02.69.13.35.13.69.11.35.11.69-.06.35-.06.69,0,.35,0,.69-.01.35-.01.69.04.35.04.69-.07.35-.07.69.11.35.11.69-.51.55-.25.79c.28.26.47-.17.85-.17s.43.28.71.03c.26-.23.11-.3.05-.64-.06-.34-.07-.35-.07-.69s.21-.35.21-.69-.25-.35-.25-.69.18-.35.18-.69-.12-.35-.12-.69-.06-.35-.06-.69.18-.35.18-.69-.11-.35-.11-.69-.07-.35-.07-.69.14-.35.14-.69.02-.35.02-.69-.17-.35-.17-.69.28-.36.03-.59c.04,0,.08.01.14.01.35,0,.35-.23.7-.23s.35-.05.7-.05.35.01.7.01.35,0,.7,0,.35.03.7.03.35.14.7.14.35.05.7.05.35-.05.7-.05.35-.11.7-.11.35.02.7.02.35-.03.7-.03.35-.01.7-.01.35,0,.7,0,.35-.03.7-.03.35.09.7.09.35.13.7.13.35.03.7.03.35-.16.7-.16.35.02.7.02.35-.11.7-.11.35.2.7.2.35,0,.7,0,.35-.1.7-.1.35.15.7.15.35-.27.7-.27.35.06.7.06.35-.02.7-.02.35.08.7.08.35.19.7.19.35-.24.7-.24.35.22.7.22.35-.18.7-.18c.05,0,.1,0,.14,0-.03.02-.06.05-.1.08-.26.23-.02.34-.02.69s.08.35.08.69-.19.35-.19.69.1.35.1.69.12.35.12.69-.19.35-.19.69-.03.35-.03.69.04.35.04.69.08.35.08.69-.16.35-.16.69.18.35.18.69-.05.35-.05.69-.04.35-.04.69-.14.42.11.66c.28.26.35-.05.73-.05s.43.29.71.03c.26-.23.26-.33.19-.67-.06-.34-.31-.32-.31-.67s.24-.35.24-.69-.07-.35-.07-.69-.14-.35-.14-.69.08-.35.08-.69-.03-.35-.03-.69.23-.35.23-.69-.16-.35-.16-.69.18-.35.18-.69-.1-.35-.1-.69.09-.35.09-.69-.3-.35-.3-.69.35-.4.09-.63c-.24-.22-.31-.17-.57-.15.14-.03.22-.07.46-.07.35,0,.35.3.7.3s.35,0,.7,0,.35,0,.7,0,.41.07.65-.18c.25-.26,0-.3-.05-.65-.06-.35.15-.38.15-.74s0-.36,0-.72-.11-.36-.11-.72-.1-.36-.1-.72.15-.36.15-.71.01-.36.01-.71-.14-.36-.14-.71.27-.36.27-.71,0-.36,0-.71ZM-6.98,353.55s-.04,0-.06,0c.05-.01.1-.02.17-.02.04,0,.08,0,.11,0-.06,0-.12.02-.22.02Z"/>
  <g>
    <path class="st0" d="M27.25,414.09l-.08-.24.09-.24-.05-.24-.02-.24v-.24s.04-.24.04-.24v-.24s.02-.24.02-.24l-.12-.24-.03-.24.07-.24v-.24s.04-.24.04-.24v-.24s-.01-.24-.01-.24l-.06-.24.02-.24.03-.24-.09-.24.08-.24-.04-.24-.02-.24.02-.24.09-.24-.06-.24-.05-.24.09-.24-.04-.24v-.24s-.04-.24-.04-.24l.08-.24.03-.24-.15-.24.04-.24-.05-.24.09-.24-.08-.24.11-.24v-.24s.02-.24.02-.24l-.07-.24-.03-.24.12-.24-.15-.24.11-.24v-.24s-.1-.24-.1-.24l.14-.24-.05-.24.03-.24-.02-.24v-.24s0-.24,0-.24l.03-.24-.05-.24-.06-.24v-.24s0-.24,0-.24l.11-.24v-.24s0-.24,0-.24l-.08-.24.08-.24v-.24s-.09-.24-.09-.24v-.24s.08-.24.08-.24l-.03-.24-.05-.24.09-.24-.03-.24-.06-.24.09-.24-.12-.24.1-.24-.03-.24.06-.24-.09-.24-.05-.24.1-.24-.06-.24.04-.24.03-.24v-.24s-.09-.24-.09-.24l.12-.24-.12-.24.05-.24.09-.24-.16-.24.06-.24.02-.24.05-.24-.13-.24.03-.24.03-.24-.06-.24v-.24s.04-.21.04-.21l-.21.05-.24-.16-.24.16-.24-.04-.24.03-.24-.04h-.24s-.24-.02-.24-.02h-.24s-.24-.1-.24-.1l-.24.02-.24.11-.24-.12-.24.1-.24.05-.24-.14-.24.11-.24-.02h-.24s-.24-.08-.24-.08l-.24.06-.24-.04h-.24s-.24.05-.24.05l-.24.05-.24-.13-.24.06-.24-.07-.24.08-.24-.09-.24.05-.24.08h-.24s-.24.01-.24.01l-.24-.05-.24.04-.24-.1-.24-.02-.24.11-.24-.04h-.24s-.24-.01-.24-.01l-.24-.05h-.24s-.24.07-.24.07l-.24.06-.24-.11-.24.11-.24-.08-.24-.03-.24.09-.24.02-.24-.09-.24.02-.24.08-.24-.12-.24-.03-.24.12h-.24s-.24.04-.24.04l-.24-.03-.24-.06-.24.05-.24-.03h-.24s-.24-.02-.24-.02l-.24.06-.24-.06-.24.05-.24-.1-.24.12-.24-.04-.24-.07-.24.04-.24-.08-.24.08-.24-.03-.24-.02-.24.07-.24-.09-.24.1-.24.02-.24.03-.24-.08-.24-.06-.24.08-.24.02-.24.05-.24-.1h-.24s-.24.1-.24.1l-.24-.04-.24.02-.24-.06-.24.03-.24.03-.24-.08-.24.08-.24-.06-.24.04-.24-.05-.24-.04-.24.08-.24-.05-.24.04-.24-.1-.24.07h-.24s-.25-.02-.25-.02l-.23.05-.06.23-.04.24.08.24v.24s.06.24.06.24l-.1.24.05.24-.08.24.16.24-.13.24.09.24-.11.24v.24s.11.24.11.24l.02.24-.06.24.04.24.05.24-.09.24.03.24-.04.24-.05.24.04.24v.24s.11.24.11.24l-.07.24-.04.24-.05.24.08.24.07.24-.13.24.07.24-.07.24.12.24.02.24v.24s-.15.24-.15.24v.24s.1.24.1.24l.03.24-.1.24.07.24-.03.24-.05.24.12.24-.02.24-.08.24.07.24-.1.24v.24s.14.24.14.24l-.14.24.02.24.03.24v.24s-.01.24-.01.24l-.04.24.14.24-.15.24.12.24-.12.24.03.24.1.24-.1.24.13.24-.09.24.09.24-.11.24.12.24-.11.24.1.24v.24s0,.24,0,.24l-.15.24.04.24v.24s.09.24.09.24l-.11.24.12.24-.09.24-.04.24v.24s-.02.24-.02.24l.13.24-.07.24.05.24v.24s-.1.24-.1.24l.05.24v.24s.07.24.07.24l-.02.24-.06.24-.04.24v.24s.01.24.01.24v.24s.02.24.02.24v.24s.05.24.05.24l.02.24-.03.24-.07.24v.24s-.01.24-.01.24v.24s.02.24.02.24l.11.24-.08.24.07.19.19.05.24.08h.24s.24-.08.24-.08l.24.02.24.06.24-.03.24-.08h.24s.24.04.24.04l.24-.02.24-.06.24.12.24-.05.24-.04.24.12h.24s.24-.03.24-.03l.24-.12.24.1h.24s.24,0,.24,0l.24-.03.24.05.24-.09.24.04h.24s.24-.04.24-.04l.24.14.24-.16.24.12.24-.1.24.07.24-.02.24-.02h.24s.24.05.24.05l.24-.06.24-.02.24.03.24.02.24-.06.24.07.24-.05.24.07.24-.09.24.12h.24s.24.02.24.02h.24s.24-.1.24-.1l.24-.05.24.05.24-.05.24.05.24-.02.24.09.24-.05.24-.02.24-.03.24.08h.24s.24-.1.24-.1l.24.08.24-.09.24.06.24.1.24-.05.24.06.24-.04.24-.02.24-.08h.24s.24.13.24.13l.24-.07h.24s.24.08.24.08l.24-.05.24-.06h.24s.24.07.24.07l.24-.06.24.08.24-.04.24-.08.24-.02.24.13h.24s.24,0,.24,0h.24s.24-.12.24-.12l.24.03.24.08h.24s.24-.11.24-.11l.24.1.24-.07.24.09.24-.13h.24s.24-.02.24-.02l.24.06.24-.05.24.12.24-.02.24-.08.24.06.24-.07.24.02h.21s-.04-.21-.04-.21v-.24s.07-.24.07-.24v-.24s-.02-.24-.02-.24l.03-.24.02-.24-.02-.24-.06-.24.14-.24v-.24ZM25.36,397.74l-.04.24.03.24-.04.24v.24s-.02.24-.02.24v.24s-.1.24-.1.24l.02.24.11.24-.12.24.1.24.05.24-.14.24.11.24-.02.24v.24s-.08.24-.08.24l.06.24-.04.24v.24s.05.24.05.24l.05.24-.13.24.06.24-.07.24.08.24-.09.24.05.24.08.24v.24s.01.24.01.24l-.05.24.04.24-.1.24-.02.24.11.24-.04.24v.24s-.01.24-.01.24l-.05.24v.24s.07.24.07.24l.06.24-.11.24.11.24-.08.24-.03.24.09.24-.03.26-.26-.06-.24-.04-.24.08h-.24s-.24.06-.24.06l-.24-.1-.24.05-.24-.08-.24.16-.24-.13-.24.09-.24-.11h-.24s-.24.11-.24.11l-.24.02-.24-.06-.24.04-.24.05-.24-.09-.24.03-.24-.04-.24-.05-.24.04h-.24s-.24.11-.24.11l-.24-.07-.24-.04-.24-.05-.24.08-.24.07-.24-.13-.24.07-.24-.07-.24.12-.24.02h-.24s-.24-.15-.24-.15h-.24s-.24.1-.24.1l-.24.03-.24-.1-.24.07-.24-.03-.24-.05-.24.12-.24-.02-.24-.08-.24.07-.24-.1h-.24s-.24.14-.24.14l-.24-.14-.24.02-.24.03h-.24s-.24-.01-.24-.01l-.24-.04-.24.14-.24-.15-.24.12-.24-.12-.24.03-.24.1-.24-.1-.24.13-.24-.09-.24.09-.24-.11-.24.12-.24-.11-.24.1h-.24s-.24,0-.24,0l-.24-.15-.24.04h-.24s-.24.09-.24.09l-.24-.11-.24.12-.24-.09-.24-.04h-.24s-.24-.02-.24-.02l-.24.13-.24-.07-.24.05h-.24s-.24-.1-.24-.1l-.24.05h-.24s-.24.07-.24.07l-.24-.02-.25-.06-.2-.03v-.2s0-.24,0-.24v-.24s-.02-.24-.02-.24v-.24s-.05-.24-.05-.24l-.02-.24.03-.24.07-.24v-.24s.01-.24.01-.24v-.24s-.02-.24-.02-.24l-.11-.24.08-.24-.09-.24.07-.24.08-.24v-.24s-.08-.24-.08-.24l.02-.24.06-.24-.03-.24-.08-.24v-.24s.04-.24.04-.24l-.02-.24-.06-.24.12-.24-.05-.24-.04-.24.12-.24v-.24s-.03-.24-.03-.24l-.12-.24.1-.24v-.24s0-.24,0-.24l-.03-.24.05-.24-.09-.24.04-.24v-.24s-.04-.24-.04-.24l.14-.24-.16-.24.12-.24-.1-.24.07-.24-.02-.24-.02-.24v-.24s.05-.24.05-.24l-.06-.24-.02-.24.03-.24.02-.24-.06-.24.07-.24-.05-.24.06-.23.23-.08.24.12h.24s.24.02.24.02h.24s.24-.1.24-.1l.24-.05.24.05.24-.05.24.05.24-.02.24.09.24-.05.24-.02.24-.03.24.08h.24s.24-.1.24-.1l.24.08.24-.09.24.06.24.1.24-.05.24.06.24-.04.24-.02.24-.08h.24s.24.13.24.13l.24-.07h.24s.24.08.24.08l.24-.05.24-.06h.24s.24.07.24.07l.24-.06.24.08.24-.04.24-.08.24-.02.24.13h.24s.25,0,.25,0h.25s.92-.03.92-.03h.24s.24-.1.24-.1l.24.14.24-.05.24.03.24-.02h.24s.24,0,.24,0l.24.03.24-.05.24-.06h.24s.24,0,.24,0l.24.11h.24s.24,0,.24,0l.24-.08.24.08h.24s.24-.09.24-.09h.24s.24.08.24.08l.24-.03.24-.05.24.09.24-.03.24-.06.24.09.24-.12.24.1.24-.03.24.06.24-.09.24-.05.24.1.24-.06.24.04.24.03h.24s.24-.09.24-.09l.24.12.24-.12.25.05.25.09.3-.13-.04.3-.02.24-.05.24.13.24-.03.24-.03.24.06.24v.24s-.02.24-.02.24l.04.24-.16.24.16.24Z"/>
    <polygon class="st0" points="16.15 396.06 16 395.86 15.84 395.68 15.77 395.44 15.57 395.3 15.39 395.14 15.17 395.05 14.99 394.87 14.77 394.75 14.5 394.83 14.28 394.74 13.39 394.79 13.15 394.78 12.94 394.89 12.67 394.86 12.46 394.99 12.3 395.18 12.08 395.29 11.97 395.5 11.8 395.67 11.7 395.88 11.64 396.1 11.59 396.32 11.49 396.55 11.77 396.56 12.06 396.52 12.34 396.55 12.28 396.76 12.27 396.99 12.36 397.22 12.28 397.49 12.38 397.73 12.57 397.9 12.67 398.15 12.89 398.28 13.12 398.4 13.34 398.5 13.58 398.59 13.83 398.6 14.09 398.6 14.3 398.43 14.51 398.31 14.75 398.25 14.92 398.08 15.12 397.93 15.26 397.72 15.34 397.48 15.34 397.23 15.37 396.99 15.38 396.77 15.3 396.47 15.61 396.54 15.89 396.51 16.16 396.49 16.11 396.32 16.15 396.06"/>
  </g>
  <path class="st0" d="M13.38,397.79c-.71.32-.54.37-.67.94-.33.07-.81-.36-.49.26-.59-.23-.08.32.05.53-1.32.07-.13,1.21-1.09.76.25.43.25.78-.28.43-.1.22.11.39-.24.3.27.53-.33-.15-.26.45.54.76-.25.06-.4.5.46.51.19.53-.28.27.09.25.06.8-.4.5.06.11.6.54.44.68-.15-.04-.76-.41-.58.03.81,1.01-1.01-.36-.29.59-.34.26.58.64-.45.13.31.37.36.64-.17.36.5.65.48.37-.19.34.46.63.12.14-.26.28.71.9-.82.15-.03,1.12-.76-.44-.24.42-.85.14.07.34.25.49.11.91-.56.08-.11.14-.2.5-.12-.06-.48-.17-.62-.17.61,1.06-.57-.21-.04.95-.44.27-.65-.5-.19.5-.45-.28-.57-.07-.64.32-.46.12-.32.11-.09.59-.88-.07.05.67-.72.42-.47.49.51.7.4-.05.35.65.46.67.72-.13.11,1.07.25.16.6.07.55-.19.34,1.34.6.03.22,1.6.13-.77.36.48.3-.2.43-.92.6-.14.17-.68.21.04.36.3.14-.18.34-.47.36-.71.11.22.19.97.36.35.19-.36.3.6.6-.2.18.92.16-.24.36.4.28.53,1.05-1.19,1.32-.24.22-.42.47.99.6-.03.19-.05.41.04.48.33.23-.85.01-.1.36.09.33-.38.36-.69.48-.02.2-.75-.03-.29.36-.22.34-.23.52-.54.6.04.41-.41.14.43.6-.1.26-.45.2.64.36-.38.05.91.46.45.48.17.56-.75.49.99.72.07.18.31.3-.55.6-.14.36.06.4.76.72-.14.02.83.36.81.48,0,.1.37.1.82.24.11.09,1,.24.28.72.44.29-.21.41-.95.61,0,.08-.31.09-.79.24-.15.17-.69.27.63.48-.35.08,1.01.44.03.61.69.2-.92-.04-.41.36-.18.2.65.28-1.07.61.05.94-1.02.56.83.85-.49-.65.56.31-.16-.03-.59-.7.31-.52.28-.13-.22-.23.04-.6.47-.69.05.04-.56.3-.33-.28-.43-.08-.37-.31-.23-.12-.55-.71-.07.74-1.03-.54-.39.38-.4.73-.84-.11-.4.2-.68-.72-.15.09-.88-1.38.47-.16-.38-.68-.77-.3.24-.38-.68-.31-.73-.43.32-.93.01-.5-.42-.4.19-.56.23-.31-.24-.36,0,.1-.27-.05-.44-.36.23-.39-.23-.35-.54.09-.34-.45.11-.55.1.06-.11.2-.37.22-.5-.69.17-.42-.42-.42-.81-.4-.19-.62-.24-.24-.63-.41.17-.55.29-.21-.16-.64.15-.31-.13-.81-.18.4-.43.42-1.18-.39-.67.07-.34.48-1.07-.21-.65.23-.32.46-.5-.1-.25.21-1.01-.45.45-.23-.96.09-.57-1.13.33-.28-.76-.92.45-.46-.28-.5-.76"/>
</svg>