<?xml version="1.0" encoding="UTF-8"?>
<svg id="Layer_1" xmlns="http://www.w3.org/2000/svg" version="1.1" viewBox="0 0 21.81 21.02">
  <!-- Generator: Adobe Illustrator 29.8.2, SVG Export Plug-In . SVG Version: 2.1.1 Build 3)  -->
  <defs>
    <style>
      .st0 {
        fill: #231f20;
      }
    </style>
  </defs>
  <path class="st0" d="M21.58,10.04c-.77-3.88-6.71-6.82-8.69-2.24-.92-.4-1.94-1.04-2.84-.34.17-2.46,2-5.29,4.83-4.97.51.05,1.75.37,1.87-.31C13.54-1.13,7.16-.5,4.14,2.93c-.84,1.46-1.6,3.01-1.37,4.77.54,2.04,2.12,3.61,4.32,3.45-.08.25.35,2.03,1.02,2.44-2.3,1.04-4.43.63-6.23-1.18-.53-.53-.35-2.52-1.45-2.05-.94,1.1-.09,2.91.26,4.22.54,3,3.03,5.05,5.8,6.15,3.69,1.37,9.25-2.41,6.42-6.37.57-.67,1.39-1.27,1.63-2.18,2.27,1.66,3.54,4.94,1.31,7.19-.33.22-.91.9-.27,1.16,4.09-.88,7.09-6.48,5.99-10.49Z"/>
</svg>